<svg width="256" height="256" viewBox="0 0 256 256" fill="none" xmlns="http://www.w3.org/2000/svg">
<g clip-path="url(#clip0_302_588)">
<path d="M128 0C57.4187 0 0 57.4187 0 128C0 198.581 57.4187 256 128 256C198.581 256 256 198.581 256 128C256 57.4187 198.581 0 128 0Z" fill="#4E94E6"/>
<path d="M128 256C157.195 256 184.043 246.069 205.6 229.547C203.204 227.633 200.716 225.839 198.144 224.171L196.907 223.573C189.037 220.932 182.263 215.76 177.643 208.864L173.525 202.667H164.171L160.544 188.203C169.184 178.464 174.208 165.771 175.605 158.304C185.376 151.061 186.667 122.997 186.667 122.667C186.667 117.728 185.109 111.2 181.248 107.328C184 102.304 186.24 95.3707 186.613 87.5947L192 82.208V80C192 56.9173 169.568 32 133.333 32C112.64 32 102.507 39.328 98.7519 42.944C88.5119 45.0347 74.6666 58.6987 74.6666 74.6667L74.6346 79.8187C74.5386 92.5973 74.7306 100.939 75.8399 106.347C71.1679 110.005 69.3332 117.28 69.3332 122.667C69.3332 122.987 70.6239 151.061 80.3946 158.304C81.7919 165.771 86.8159 178.464 95.4452 188.203L91.8399 202.667H82.4852L78.3679 208.853C73.7706 215.733 66.9332 220.96 58.1546 224C54.7092 225.963 52.2346 227.84 50.5386 229.653C72.752 246.728 99.9822 255.99 128 256Z" fill="white"/>
<path opacity="0.2" d="M128 2.66667C198.133 2.66667 255.211 59.3707 255.936 129.333C255.936 128.885 256 128.448 256 128C256 57.4187 198.581 0 128 0C57.4187 0 0 57.4187 0 128C0 128.448 0.064 128.885 0.064 129.333C0.789333 59.3707 57.8773 2.66667 128 2.66667Z" fill="white"/>
<path opacity="0.1" d="M128 253.333C57.8667 253.333 0.789333 196.629 0.064 126.667C0.064 127.115 0 127.552 0 128C0 198.581 57.4187 256 128 256C198.581 256 256 198.581 256 128C256 127.552 255.936 127.115 255.936 126.667C255.211 196.629 198.123 253.333 128 253.333Z" fill="#4E94E6"/>
<path d="M128 0C57.4187 0 0 57.4187 0 128C0 198.581 57.4187 256 128 256C198.581 256 256 198.581 256 128C256 57.4187 198.581 0 128 0Z" fill="url(#paint0_linear_302_588)"/>
</g>
<defs>
<linearGradient id="paint0_linear_302_588" x1="12" y1="73.9093" x2="244" y2="182.091" gradientUnits="userSpaceOnUse">
<stop stop-color="white" stop-opacity="0.2"/>
<stop offset="1" stop-color="white" stop-opacity="0"/>
</linearGradient>
<clipPath id="clip0_302_588">
<rect width="256" height="256" fill="white"/>
</clipPath>
</defs>
</svg>
