<svg width="256" height="256" viewBox="0 0 256 256" fill="none" xmlns="http://www.w3.org/2000/svg">
<g clip-path="url(#clip0_302_606)">
<path d="M128 0C57.4187 0 0 57.4187 0 128C0 198.581 57.4187 256 128 256C198.581 256 256 198.581 256 128C256 57.4187 198.581 0 128 0Z" fill="#853644"/>
<path d="M73.6425 222.219L61.7598 227.168L51.8398 230.635C73.8214 247.092 100.54 255.991 128 256C155.445 256 180.832 247.243 201.707 232.48L182.357 222.219C173.015 218.298 165.584 210.868 161.664 201.525C166.656 200.832 181.333 202.667 181.333 202.667C181.099 202.155 180.32 194.027 180.139 193.6C184.939 194.635 192.939 191.061 197.333 186.667C197.333 186.667 191.936 172.053 191.989 166.955L192 165.355C192 159.531 193.195 157.739 195.189 154.773C198.517 149.792 202.667 143.595 202.667 122.677C202.667 91.9146 178.197 32.0106 133.333 32.0106C126.99 31.9263 120.773 33.7876 115.52 37.3439H112C78.5172 37.3439 53.3332 89.1092 53.3332 122.677C53.3332 143.584 57.4825 149.792 60.8105 154.773C62.8052 157.739 63.9998 159.531 63.9998 165.344L64.0105 166.955C64.0638 172.043 60.2238 190.453 60.2238 190.453C64.7038 194.901 71.2425 194.645 75.8505 193.621C75.6692 194.048 74.9012 202.165 74.6665 202.667C74.6665 202.667 89.3118 200.853 94.3358 201.536C90.4152 210.876 82.9843 218.303 73.6425 222.219Z" fill="white"/>
<path opacity="0.2" d="M128 2.66667C198.133 2.66667 255.211 59.3707 255.936 129.333C255.936 128.885 256 128.448 256 128C256 57.4187 198.581 0 128 0C57.4187 0 0 57.4187 0 128C0 128.448 0.064 128.885 0.064 129.333C0.789333 59.3707 57.8773 2.66667 128 2.66667Z" fill="white"/>
<path opacity="0.1" d="M128 253.333C57.8667 253.333 0.789333 196.629 0.064 126.667C0.064 127.115 0 127.552 0 128C0 198.581 57.4187 256 128 256C198.581 256 256 198.581 256 128C256 127.552 255.936 127.115 255.936 126.667C255.211 196.629 198.123 253.333 128 253.333Z" fill="#853644"/>
<path d="M128 0C57.4187 0 0 57.4187 0 128C0 198.581 57.4187 256 128 256C198.581 256 256 198.581 256 128C256 57.4187 198.581 0 128 0Z" fill="url(#paint0_linear_302_606)"/>
</g>
<defs>
<linearGradient id="paint0_linear_302_606" x1="12" y1="73.9093" x2="244" y2="182.091" gradientUnits="userSpaceOnUse">
<stop stop-color="white" stop-opacity="0.2"/>
<stop offset="1" stop-color="white" stop-opacity="0"/>
</linearGradient>
<clipPath id="clip0_302_606">
<rect width="256" height="256" fill="white"/>
</clipPath>
</defs>
</svg>
